<svg width="150" height="100" xmlns="http://www.w3.org/2000/svg" viewBox="0 0 651.97 436.54"><style>.prefix__st0{fill:#fff}.prefix__st1{fill:#ee3235}</style><path class="prefix__st0" d="M625.2 156.02l-8.06 43.26h-.23l-23.86-43.26h-10.67l-12.49 67.88h13.74l7.95-42.43h.22l23.4 42.43h11.14l12.72-67.88zM493.44 223.89h13.86l12.72-67.87h-13.18l-23.63 27.96-14.42-27.96h-10.8l-12.6 67.87h13.86l7.94-42.89h.24l12.6 24.13 21.25-24.85h.22z"/><path class="prefix__st0" d="M414.38 156.02h-13.97l-12.62 67.88h13.86l6.02-31.79 21.01 31.79h17.39l-23.97-35.5 29.76-32.38h-16.58l-26.47 30zM461.74 267.87h-21.8l3.18-17.33h26.8l1.93-10.51h-40.66l-12.61 67.75h43.96l10.11-10.52h-38.28l3.63-18.88h21.7z"/><path class="prefix__st0" d="M376.66 154.35c-3.74 0-7.38.24-10.8 1.2-17.03 4.66-29.3 20.67-29.3 40.5 0 13.99 8.85 29.4 27.15 29.4 13.85 0 20.89-6.46 26.47-10.04l-5.57-8.84c-3.52 2.38-6.01 4.53-9.77 5.97-2.38.95-5.34 1.67-9.43 1.67-8.06 0-14.54-7.17-14.54-18.52.12-14.35 8.3-30.23 23.51-30.23 7.38 0 9.78 2.99 12.38 5.73l7.04-8.6c-3.96-4.65-9.98-8.24-17.14-8.24M379.62 307.78h13.86l10.78-57.24h16.93l10.22-10.52h-57.25l-1.93 10.52h18.07z"/><path class="prefix__st0" d="M330.43 183.98h-21.81l3.18-17.45h26.81l1.93-10.51h-40.66l-12.62 67.87h45.33l10.22-10.51h-39.76l3.64-18.88h21.7zM332.59 307.78h39.3l10.23-10.52h-33.75l10.68-57.24h-13.86zM324.86 240.03l-8.52 45.76c-1.36 7.53-7.61 12.19-14.65 12.19-7.05 0-11.25-5.74-10.12-12.19l8.52-45.76h-13.86l-8.18 43.86c-3.06 16.13 6.82 25.33 21.36 25.33 18.06 0 27.94-8.84 31.01-25.33l8.18-43.86h-13.74z"/><g><path class="prefix__st0" d="M196.96 229.51c-3.98 0-7.84.12-11.48 1.08-19.08 4.89-33.05 22.46-33.05 44.09-.12 18.64 12.5 34.89 30.9 34.89 14.77 0 22.15-6.33 27.37-10.28l-5.22-9.2c-4.88 4.31-9.08 8.13-19.31 8.13-10.8 0-18.86-9.2-18.86-22.95 0-17.44 9.54-34.89 27.6-34.89 6.59 0 11.36 4.18 14.77 7.89l7.27-8.49c-3.86-3.94-11.59-10.27-19.99-10.27"/><path class="prefix__st1" d="M197.64 47.76c-13.97-22.11-42.37-32.98-66.57-32.98-62.82 0-115.63 54.62-115.63 120.93 0 12.66 2.27 24.97 6.47 36.2v-.12c-.79-2.87-1.47-8.96-1.47-11.12 0-15.06 8.4-27.48 20.33-33.58.91-2.38 2.04-4.78 3.4-7.17 9.43-17.44 32.26-35.84 61.01-35.84 25.45 0 49.87 15.06 77.8 15.06 1.6 0 3.18-.13 4.66-.36.12-15.06-5.79-29.39-14.2-41.35-8.51-12.07-24.31-20.8-37.93-21.98 2.27-.13 4.43-.48 6.58-.48 28.4-.24 51.35 23.77 51.35 53.77 0 3.1-.23 5.97-.57 8.84 8.18-2.87 13.41-9.8 13.74-20.44.12-6.91-2.49-19.34-8.97-29.38"/></g><g><path class="prefix__st1" d="M172.08 115.87c-26.69.12-53.39-16.73-84.4-16.73-23.51 0-31.69 8.01-40.33 21.27-.9 1.43-1.7 2.99-2.38 4.66 3.98-1.43 8.18-2.27 12.61-2.27 26.7-.13 53.39 16.72 84.52 16.72 23.51 0 31.69-8.01 40.21-21.26.9-1.44 1.7-2.99 2.38-4.66-3.97 1.44-8.18 2.15-12.61 2.27"/><path class="prefix__st1" d="M208.2 67.84c-1.02-2.63-.46-.84-.46-.84s1.48 8.84 1.48 11.11c0 15.06-8.4 27.49-20.33 33.7-.91 2.39-2.05 4.78-3.41 7.17-9.43 17.45-32.25 35.84-61 35.97-25.45 0-49.87-15.06-77.81-15.06-1.59 0-3.18.12-4.66.36-.11 15.06 5.8 29.39 14.2 41.34 8.52 12.07 24.31 20.8 37.94 21.99-2.28.12-4.44.48-6.7.48-28.4.23-51.35-23.78-51.35-53.77 0-3.11.23-5.98.57-8.84-8.18 2.86-13.4 9.79-13.75 20.43-.22 6.69 2.39 19.12 8.98 29.28 14.2 22.23 42.6 33.46 67.25 33.46 63.04 0 115.63-51.86 115.63-119.02.01-13.39-2.15-26.17-6.58-37.76"/><path class="prefix__st0" d="M535.46 197.37l10.12-20.2h.45l3.98 20.2h-14.55zm18.86-41.35h-8.74l-38.28 67.76h14.88l8.18-15.89h21.58l3.18 15.89h14.99l-15.79-67.76zM491.62 268.1l3.29-17.57h5c9.66 0 11.59 3.95 10.68 8.84-1.14 6.22-4.77 8.84-12.84 8.84h-6.13v-.11zm14.77 8.73c6.7-.84 16.47-4.78 18.74-17.57 2.04-11.35-6.14-19.36-21.36-19.36h-20.89l-12.62 67.87h13.86l5.68-30.59h.34l19.88 30.59h17.95l-21.58-30.94zM271.93 200.95c-2.05 10.51-10.91 12.43-23.3 12.43h-8.29l4.54-24.98h8.3c10.91 0 20.8 1.8 18.75 12.55m-21.24-43.14h6.47c10.34 0 15.8 2.51 14.32 10.04-1.14 6.1-5.12 10.04-16.58 10.04h-8.06l3.85-20.08zm21.81 24.98v-.24c3.4-1.67 11.7-3.94 13.52-14.7 2.5-14.45-8.3-20.55-25.56-20.55h-21.7l-14.31 76.6h26.35c22.38 0 32.94-7.76 35.33-20.31 2.16-11.24-6.25-19.37-13.63-20.8M243.65 297.86c-1.6.36-3.3.36-5 .36-6.7 0-13.74-7.65-13.74-19.24 0-11.12 5.68-25.1 16.36-28.68 2.04-.72 4.2-.84 6.36-.84 6.7 0 13.74 7.53 13.74 19.01 0 11.7-5.91 26.52-17.72 29.39m5.56-59.39c-4.09 0-7.95.48-11.48 1.56-15.9 5.14-26.35 21.15-26.35 39.91 0 13.98 8.4 29.15 25.79 29.15 3.64 0 6.93-.23 10.22-1.19 16.7-4.79 27.72-21.16 27.72-40.4-.23-13.85-8.63-29.03-25.9-29.03"/><path class="prefix__st1" d="M192.19 409.47l-2.16 12.18h-37.15l11.82-65.36h13.29l-9.65 53.18zM197.19 421.65l8.51-47.44H219l-8.64 47.44h-13.17zM214 368.24c-3.74 0-6.36-2.75-6.36-6.81 0-4.79 3.64-7.89 7.61-7.89 3.98 0 6.7 2.75 6.7 6.94 0 4.89-3.63 7.88-7.83 7.88H214v-.12zM221.84 421.66l6.58-36.92h-5.79l1.93-10.64h5.91l.34-2.38c.9-5.62 3.06-11.59 7.61-15.53 3.64-3.23 8.4-4.43 12.84-4.43 3.18 0 5.68.48 7.04 1.2l-2.28 11.12c-1.14-.49-2.5-.84-4.2-.84-4.32 0-6.93 3.94-7.72 8.6l-.46 2.39h8.98l-1.94 10.63h-8.86l-6.58 36.92h-13.4v-.12zM286.93 418.91c-5.22 2.87-11.82 3.82-16.82 3.82-12.83 0-19.53-7.65-19.53-20.08 0-14.45 9.99-29.51 26.35-29.51 9.08 0 15.68 5.38 15.68 14.34 0 12.07-11.14 16.37-29.31 15.89.11 1.31.56 3.46 1.48 4.78 1.7 2.39 4.77 3.71 8.63 3.71 4.88 0 9.08-1.2 12.61-2.99l.91 10.04zm-11.71-35.61c-6.14 0-9.77 5.38-10.68 9.79 10.46.13 15.56-1.31 15.56-5.86.01-2.26-1.81-3.93-4.88-3.93M315.66 406.48c3.64 2.39 8.98 4.18 14.66 4.18 5.11 0 9.87-2.51 9.87-7.53 0-3.82-2.72-6.09-8.4-9.32-6.59-3.71-12.83-8.84-12.83-17.33 0-13.26 10.9-21.26 24.41-21.26 7.62 0 12.04 1.79 14.66 3.22l-4.2 11.59c-2.04-1.2-6.48-2.87-11.58-2.75-6.25 0-9.54 3.23-9.54 6.82 0 3.82 3.74 6.22 9.08 9.32 7.61 4.07 12.38 9.44 12.38 17.21 0 14.58-11.48 21.99-25.33 21.99-8.64-.13-14.88-2.39-17.84-4.67l4.66-11.47zM391.09 420.1c-2.84 1.43-7.5 2.51-12.84 2.51-11.13 0-18.97-7.17-18.97-19.36 0-16.85 12.27-30.11 29.42-30.11 3.86 0 7.16.84 9.2 1.56l-3.3 10.75c-1.59-.71-3.4-1.19-6.02-1.19-9.43 0-15.34 8.48-15.34 17.32 0 6.45 3.98 9.79 8.86 9.79 3.86 0 6.59-.95 8.98-1.91v10.64zM398.25 421.65l8.63-47.44h13.3l-8.64 47.44h-13.29zm16.81-53.41c-3.64 0-6.36-2.75-6.36-6.81 0-4.79 3.64-7.89 7.62-7.89 3.97 0 6.69 2.75 6.69 6.94 0 4.89-3.63 7.88-7.83 7.88h-.12v-.12zM459.02 418.91c-5.22 2.87-11.82 3.82-16.81 3.82-12.84 0-19.54-7.65-19.54-20.08 0-14.45 9.99-29.51 26.23-29.51 9.09 0 15.68 5.38 15.68 14.34 0 12.07-11.13 16.37-29.31 15.89.12 1.31.57 3.46 1.48 4.78 1.7 2.39 4.77 3.71 8.64 3.71 4.88 0 9.08-1.2 12.61-2.99l1.02 10.04zm-11.7-35.61c-6.14 0-9.77 5.38-10.68 9.79 10.46.13 15.56-1.31 15.56-5.86 0-2.26-1.82-3.93-4.88-3.93M466.52 421.66l5.68-32.02c1.24-5.98 1.82-11.12 2.5-15.42h11.7l-.8 7.89h.22c4.2-6.1 9.78-8.97 15.8-8.97 7.38 0 11.58 4.79 11.58 13.02 0 2.16-.34 5.62-.68 8.01l-5 27.6h-13.4l4.77-26.29c.23-1.66.46-3.46.46-5.25 0-3.35-1.14-5.74-4.54-5.74-4.32 0-9.43 5.74-11.24 16.25l-3.75 21.03h-13.29v-.11zM548.64 420.1c-2.84 1.43-7.5 2.51-12.84 2.51-11.13 0-18.97-7.17-18.97-19.36 0-16.85 12.27-30.11 29.42-30.11 3.86 0 7.16.84 9.2 1.56l-3.3 10.75c-1.59-.71-3.4-1.19-6.14-1.19-9.43 0-15.33 8.48-15.33 17.32 0 6.45 3.98 9.79 8.86 9.79 3.86 0 6.59-.95 8.97-1.91l.13 10.64zM591.81 418.91c-5.22 2.87-11.82 3.82-16.92 3.82-12.84 0-19.42-7.65-19.42-20.08 0-14.45 9.99-29.51 26.23-29.51 9.09 0 15.68 5.38 15.68 14.34 0 12.07-11.13 16.37-29.31 15.89.12 1.31.56 3.46 1.48 4.78 1.7 2.39 4.77 3.71 8.63 3.71 4.89 0 9.09-1.2 12.62-2.99l1.01 10.04zm-11.7-35.61c-6.24 0-9.77 5.38-10.68 9.79 10.46.13 15.56-1.31 15.56-5.86 0-2.26-1.82-3.93-4.88-3.93M601.01 409.11c2.62 1.31 7.38 3.35 11.7 3.35 3.74 0 5.68-1.92 5.68-4.3 0-2.28-1.48-3.95-5.68-6.1-5.12-2.74-9.54-6.69-9.54-12.66 0-9.92 8.18-16.37 19.88-16.37 5.22 0 9.43 1.2 11.58 2.39l-3.18 9.91c-1.82-.84-5.12-2.03-8.98-2.03-3.63 0-5.9 1.56-5.9 4.18 0 1.92 1.82 3.59 5.46 5.5 4.99 2.64 10.11 6.46 10.11 13.03 0 10.86-8.74 16.72-20.79 16.72-5.68-.12-11.14-1.67-13.74-3.7l3.4-9.92z"/></g></svg>