<svg class="logo-svg" width="125" height="71" 
xmlns="http://www.w3.org/2000/svg" 
viewBox="0 0 125 70"><defs>
<radialGradient id="prefix__radial-gradient" 
cx="73.59" cy="17.68" r="25.88" gradientUnits="userSpaceOnUse">
<stop offset=".26" stop-color="#50b848"/><stop offset="1" 
stop-color="#00664b"/></radialGradient><style>
.prefix__cls-1{fill:#00503c}</style></defs>
<path class="prefix__cls-1" 
d="M18.1 63.31a6 6 0 001.24 2 2.86 2.86 0 001.69.85v.7a4.64 4.64 0 
01-.63.1 6.49 6.49 0 01-.72 0 8.47 8.47 0 01-1.45-.13 5 5 
0 01-1.52-.5 5.1 5.1 0 01-1.41-1.1 6.76 6.76
 0 01-1.17-1.93l-.65-1.58H5.94l-2.33 5.14H2.2l8.32-18.61h1.27zM6.53 
 60.46h6.41L9.82 53.1z"
 
 <path class="prefix__cls-1" d="M25.05 
 61.5a11.16 11.16 0 01-1 3.19 4.3 4.3 0 01-1.53 1.75 3.71 3.71 
 0 01-1.93.53 6.65 6.65 0 01-1-.08 5.84 5.84 0 01-.73-.17v-.82a3.19 
 3.19 0 002.51-2 10.34 10.34 0 00.76-2.73 28.91 28.91 0 00.28-4.5 
 6.36 6.36 0 00-.07-1 1.72 1.72 0 00-.31-.8 1.58 1.58 0 00-.65-.54 
 2.51 2.51 0 00-1.08-.2v-.83h12.75v13.25h-1.93a1.74 1.74 0 01-1.74-1.75V54.57h-4v2.11a27.43 
 27.43 0 01-.33 4.82zM37 57a5.09 5.09 0 
 00-.35-2q-.34-.78-1.62-.78h-.28v-.92h3.38a3.63 3.63 0 
 011.23.18 1.65 1.65 0 01.79.61 2.73 2.73 0 01.4 1.13 
 10.61 10.61 0 01.08 1.78v1.7h2.11a7.66 7.66 0 014.22 
 1 3.53 3.53 0 010 5.86 7.66 7.66 0 01-4.22 1H37zm3.67 
 8.26a2.74 2.74 0 00.67.16 5.1 5.1 0 00.6 0 4.3 4.3 0 
 001.1-.14 2.21 2.21 0 00.88-.47 2.13 2.13 0 00.61-.86 
 3.45 3.45 0 00.23-1.35 3.57 3.57 0 00-.23-1.34 2.24 2.24 
 0 00-.61-.87 2.34 2.34 0 00-.88-.47 4.3 4.3 0 00-1.1-.14h-.6a3.29 
 3.29 0 00-.67.16zM49.91 54.92a1.59 1.59 0 
 00-1.62-.78h-.14v-.84h9.72a2.3 2.3 0 011 .2 1.61 1.61 0 
 01.65.5 2.16 2.16 0 01.33.72 3.85 3.85 0 01.1.83v2h-.85a3.15 
 3.15 0 00-.7-2.29 2.75 2.75 0 00-2-.67h-2.47V64.8a1.75 1.75 
 0 01-1.75 1.75h-1.92V57a5.09 5.09 0 
 00-.35-2.08zM62.57 54.92q-.34-.78-1.62-.78h-.28v-.84h3.38a3.63 
 3.63 0 011.23.18 1.65 1.65 0 01.79.61 2.73 2.73 0 01.41 1.13 12 
 12 0 01.11 1.78v6l5.07-9.72h3.39v13.27h-1.92a1.75 1.75 0 01-1.75-1.75v-8l-5.07 9.73h-3.39V57a4.92 4.92 0 00-.35-2.08zM92.88 61.76a9.9 9.9 0 00.45 3.46 2 2 0 001.61 1.33v.7c-2 0-3.51-.45-4.4-1.36a5.76 5.76 0 01-1.32-4.13v-4.91l-4.06 9.7h-.93l-4.91-10v9.95h-1.41V53.3h3.44l4.17 8.48L89.19 53h3.69zM101.85 65.56a3.86 3.86 0 002.38-.68 7.87 7.87 0 001.65-1.66l.87.65a9.45 9.45 0 01-.74 1 5.54 5.54 0 01-1.07 1 6.14 6.14 0 01-1.5.72 6.4 6.4 0 01-2 .28 6.65 6.65 0 01-2.69-.52 5.88 5.88 0 01-2-1.45 6.5 6.5 0 01-1.3-2.19 8.05 8.05 0 01-.45-2.75 8.55 8.55 0 01.48-3 6.1 6.1 0 011.31-2.16 5.58 5.58 0 012-1.31 6.55 6.55 0 012.45-.45 7 7 0 012.46.41 5.9 5.9 0 012 1.14 5.27 5.27 0 011.32 1.77 5.66 5.66 0 01.47 2.32v1.21c0 .17 0 .39-.06.56h-8.68a6.83 6.83 0 00.86 4 2.65 2.65 0 002.24 1.11zm1.69-6.4a12.64 12.64 0 00-.18-2.34 5.27 5.27 0 00-.5-1.49 1.9 1.9 0 00-.74-.81 2.14 2.14 0 00-1-.23 2 2 0 00-.91.23 2 2 0 00-.76.81 5.22 5.22 0 00-.53 1.49 11.73 11.73 0 00-.19 2.34zM108 68.8a4.22 4.22 0 01.65-1.38 1.93 1.93 0 01.93-.69 3.8 3.8 0 011.21-.18h8.09a3.86 3.86 0 011.22.18 2 2 0 01.93.69 4.22 4.22 0 01.65 1.38c0 .14.07.29.11.44h1v-3a1 1 0 00-.28-.71 1 1 0 00-.71-.28h-.8v-9.8a2.17 2.17 0 00-2.18-2.18h-10.4v.84a2.64 2.64 0 011.1.2 1.52 1.52 0 01.65.54 1.82 1.82 0 01.29.8 6.36 6.36 0 01.07 1 27.08 27.08 0 01-.36 4.2 17.46 17.46 0 01-1.33 4.4h-1a1 1 0 00-.71.28 1 1 0 00-.28.71v3h1c.06-.15.09-.3.15-.44zm4.51-5.7a21.33 21.33 0 00.48-2.43q.18-1.28.27-2.79c.06-1 .09-2.11.09-3.31h4v10.71h-5.53a15.46 15.46 0 00.67-2.18zM64.71 38.58a24.773 24.773 0 000 0zM64.85 1.78c-3.67.9-7.73 3-9.82 5.84s1.63-3.51 7.89-6.25c-.4-.6-2.5-.78-4.6-.44a12.53 12.53 0 00-4.53 1.67c-5.86 2.89-14.91 10-15.21 23.09C38.25 40 47.47 45 55.63 43.37a18.46 18.46 0 006.91-3.11c.44-.3.85-.61 1.25-.93-1.6.08-1.14-.26-2.35-.46-2.93 2.19-8.25 4-13.17.46C43.61 36 41 24.82 46 16.57c-.48 5.49 1.22 9.74 3.64 12.17-.39-6.32 6.07-10.32 9.9-12C64.18 14.66 72 11.83 72.63 6.6 73 4.06 71.28.22 64.85 1.78zM81.18 36.36a16.37 16.37 0 01-4.68 4.94s1.09 2.06 6.45 1.44c-.8-.74-2.01-2.96-1.77-6.38z"/><path d="M73.78 3.29C78.18 14 66.23 17 63.66 18.53c-5.29 3.26-10.95 6.15-10.85 12.86.08 5.14 3 8.31 11 7.94a30.46 30.46 0 003.42-3.13 42.47 42.47 0 003-3.59l1-1.39.71-1 .51-.76h.06l-.37.8c-.24.53-.61 1.31-1.11 2.27s-1.16 2.12-2 3.41A25.52 25.52 0 0165.85 40c-.35.34-.72.69-1.13 1 .61.82 1.82 1.55 4.22 1.29 6.55-.69 13-6.43 13.8-17.21.76-9.64-3.56-18-8.96-21.79z" fill="url(#prefix__radial-gradient)"/></svg>