<svg width="25" height="25" xmlns="http://www.w3.org/2000/svg" viewBox="0 0 30 30"><defs><style>.prefix__cls-1{fill:#214f3d}</style></defs><path class="prefix__cls-1" d="M27.86 19.29c0-4.29-1.07-7.5-5.36-8.58a3.25 3.25 0 01-4.29 0A7 7 0 0015 12.39a7 7 0 00-3.21-1.68 3.25 3.25 0 01-4.29 0C3.21 11.79 2.14 15 2.14 19.29H0v2.14h2.14v6.43h2.15V30H15v-2.14h2.14v-6.43H30v-2.14zm-10.72 0a12.21 12.21 0 00-.87-5.09 4.14 4.14 0 011.59-1.13 5.57 5.57 0 005 0c2.07.84 2.86 2.63 2.86 6.22z"/><circle class="prefix__cls-1" cx="9.64" cy="4.29" r="4.29"/><path class="prefix__cls-1" d="M20.36 8.57a4.29 4.29 0 10-4.29-4.28 4.28 4.28 0 004.29 4.28zm0-6.43a2.15 2.15 0 11-2.15 2.15 2.14 2.14 0 012.15-2.15z"/></svg>