<svg width="25" height="25" xmlns="http://www.w3.org/2000/svg" viewBox="0 0 30 30"><style>.prefix__st0{fill:#214f3d}</style><path class="prefix__st0" d="M23.8 6.9L15 2.8 6.3 6.9c-.4.1-.5.5-.4.8.1.2.2.3.4.4l4.4 2.1 4.3 2 4.3-2 3.1-1.4v8.8l-.7 4h2l-.7-4V8.4l.7-.3c.3-.2.5-.6.3-.9 0-.2-.1-.3-.2-.3z"/><path class="prefix__st0" d="M15.3 13.4l-.3.1-.3-.2-6-2.8-.7 6.9c2.4 0 4.8.5 7 1.6 2.2-1.1 4.6-1.6 7-1.6l-.7-6.8-6 2.8z"/><path class="prefix__st0" d="M11.4 25c-5.3-.1-9.1-.1-10.1 0-.2 0-.7.1-1.1-.3-.2-.2-.2-.6-.2-1.1V1.4C0 .3.2 0 1.2 0h27.6c1 0 1.2.3 1.2 1.3v22.3c0 .5-.1.8-.3 1-.2.4-.7.4-.9.4-.9-.1-4.8 0-10.1 0h-7.3zm3.7-23.6H2.5C1.3 1.4 1 1.8 1 3v18.2c0 1.3.3 1.7 1.5 1.7h24.9c1.3 0 1.6-.3 1.6-1.7v-18c0-1.4-.3-1.8-1.6-1.8H15.1zM15 30H6.6c-1 0-1.4-.5-1.2-1.6.3-1.3 1.3-2.2 2.5-2.2h14.4c1.3 0 2.4 1.1 2.5 2.5.1.9-.2 1.3-1.1 1.3H15z"/></svg>