<svg xmlns="http://www.w3.org/2000/svg" width="25" height="25" viewBox="0 0 30 30"><defs><style>.prefix__cls-1{fill:#214f3d}</style></defs><path class="prefix__cls-1" d="M23.75 5.08L5.29 3v23.88a1.07 1.07 0 001 1.07L24.71 30V6.15a1.08 1.08 0 00-.96-1.07zM8.53 6.7L21.4 8.1v8.63l-12.87-1.4zm4.31 17.74L8.53 24v-6.52l4.31.48zm7.55-.31l-4.92-.56A.53.53 0 0115 23a.5.5 0 01.18-.39.56.56 0 01.41-.14l4.8.54zM21.47 21l-6-.67a.53.53 0 01-.47-.53.52.52 0 01.18-.4.51.51 0 01.41-.13l5.88.65z"/><path class="prefix__cls-1" d="M9.78 9.17a.54.54 0 00-.17.4.53.53 0 00.47.53l9.75 1.1v-1.08L10.2 9a.54.54 0 00-.42.17zM9.78 12.41a.52.52 0 00-.17.39.53.53 0 00.47.53l7.59.86v-1.07l-7.47-.85a.6.6 0 00-.42.14zM20.39.86a.86.86 0 00-1-.84L8.63 2.32l11.76 1.3z"/></svg>