<svg width="26" height="25" viewBox="0 0 26 25" fill="none" xmlns="http://www.w3.org/2000/svg">
<path d="M16.8375 0.8974H9.1625C2.15833 0.8974 0.5 2.47713 0.5 9.1493V16.4605C0.5 23.1327 2.15833 24.7124 9.1625 24.7124H16.8375C23.8417 24.7124 25.5 23.1327 25.5 16.4605V9.1493C25.5 2.47713 23.824 0.8974 16.8375 0.8974ZM20.6833 17.8884H18.8667C18.1792 17.8884 17.9667 17.3675 16.7312 16.1747C15.6552 15.1824 15.1792 15.0485 14.9146 15.0485C14.5437 15.0485 14.4375 15.1497 14.4375 15.6369V17.1998C14.4375 17.6205 14.2969 17.8725 13.1323 17.8725C11.2094 17.8725 9.07396 16.7632 7.575 14.6952C5.31667 11.6707 4.69792 9.40134 4.69792 8.93099C4.69792 8.67895 4.80417 8.44378 5.31562 8.44378H7.13229C7.59062 8.44378 7.76771 8.64521 7.94479 9.11556C8.84375 11.5864 10.3437 13.7545 10.9615 13.7545C11.1906 13.7545 11.2969 13.6533 11.2969 13.0996V10.5435C11.226 9.36661 10.5729 9.26639 10.5729 8.84665C10.5729 8.64422 10.75 8.44279 11.0312 8.44279H13.8896C14.2781 8.44279 14.4187 8.64422 14.4187 9.08083V12.5271C14.4187 12.8962 14.5958 13.0311 14.701 13.0311C14.9302 13.0311 15.125 12.8962 15.5479 12.4933C16.8542 11.0982 17.7885 8.94687 17.7885 8.94687C17.9125 8.69483 18.124 8.45966 18.5833 8.45966H20.4C20.9469 8.45966 21.0708 8.72757 20.9469 9.0977C20.7177 10.1069 18.4948 13.0976 18.4948 13.0976C18.301 13.4003 18.2302 13.5342 18.4948 13.8716C18.6885 14.1237 19.324 14.6446 19.7479 15.115C20.524 15.9554 21.1229 16.6609 21.2823 17.1492C21.4594 17.6354 21.1937 17.8874 20.6823 17.8874L20.6833 17.8884Z" fill="black"/>
</svg>
